<svg id="Layer_1" data-name="Layer 1" xmlns="http://www.w3.org/2000/svg" viewBox="0 0 71.34 77.3"><defs><style>.cls-1{fill:#9a1fa1;}.cls-2{fill:#fff;}.cls-3{fill:none;stroke:#9a1fa1;stroke-miterlimit:10;}</style></defs><title>icon</title><path class="cls-1" d="M165.85,350.89a36.53,36.53,0,0,1,6.18-21.8,35.36,35.36,0,0,1,18.37-14.2c12-3.86,25.63-.59,34.89,7.61,12.25,10.84,11.94,25.87,11.85,28.09a48.76,48.76,0,0,1-16.84,1.93c-4.15-.27-6.22-.4-8.74-1.48-4.07-1.74-5.41-4.13-9.07-4.15a10.43,10.43,0,0,0-4.9,1.23c-2.18,1.17-3.05,2.87-5,3.71a6.92,6.92,0,0,1-2.18.49C185.6,352.89,167.48,351.06,165.85,350.89Z" transform="translate(-165.82 -300.07)"/><path class="cls-1" d="M169.12,313.14s7.18-4.46,10.58.57,2.52,4.58,2.52,4.58l7.56-3.4s-11.16-9-15.88-6.42S169.12,313.14,169.12,313.14Z" transform="translate(-165.82 -300.07)"/><path class="cls-1" d="M220.74,321.7c-.07-.2-1.43-4.51,1.07-7a6,6,0,0,1,3.67-1.61c5.63-.64,7.41,1.73,7.41,1.73s-3.26-10.94-11.7-6.88-4.23,5.76-11.45,6.47c1.32.75,2.66,1.56,4,2.43C216.32,318.44,218.64,320.08,220.74,321.7Z" transform="translate(-165.82 -300.07)"/><path class="cls-1" d="M171.87,329.09s-3.28-3.24-3.43-7.39a41,41,0,0,1,0-5.18s-1.82,4.73,1.68,15.4Z" transform="translate(-165.82 -300.07)"/><path class="cls-1" d="M233.48,319.19c-.11-.46.2,9.56-3.6,13.15l1.33,3.2S235.11,326,233.48,319.19Z" transform="translate(-165.82 -300.07)"/><path class="cls-1" d="M195.41,351.19s7.55-4.89,13.48,0c0,0-4.59,5.92-7.7,4.29A27.38,27.38,0,0,1,195.41,351.19Z" transform="translate(-165.82 -300.07)"/><path class="cls-1" d="M202.15,354.74v5.63h1.11v-5.63" transform="translate(-165.82 -300.07)"/><path class="cls-1" d="M197.33,361.89s4.82-1.22,5.37-3.33c0,0,3.19,3.88,5.63,3.33,0,0-1.55,7.89-5.5,6.78S198.44,366.56,197.33,361.89Z" transform="translate(-165.82 -300.07)"/><circle class="cls-2" cx="47.81" cy="38.85" r="5"/><circle class="cls-2" cx="23.95" cy="38.85" r="5.11"/><ellipse class="cls-2" cx="47.81" cy="28.94" rx="3.67" ry="0.94"/><ellipse class="cls-2" cx="26.66" cy="28.94" rx="3.67" ry="0.94"/><path class="cls-3" d="M166.46,350a26.72,26.72,0,0,0,3.1,11.11c7.34,13.56,24.6,15.28,27.38,15.56,12.58,1.25,29.43-3.15,36.39-16A27.34,27.34,0,0,0,236.46,350" transform="translate(-165.82 -300.07)"/><ellipse class="cls-3" cx="35.19" cy="3.7" rx="13.78" ry="3.2"/></svg>